<svg width="16" height="16" viewBox="0 0 16 16" fill="none" xmlns="http://www.w3.org/2000/svg">
<path fill-rule="evenodd" clip-rule="evenodd" d="M12.5249 11.2881C13.446 10.1032 13.9945 8.61427 13.9945 6.99725C13.9945 3.13278 10.8617 0 6.99725 0C3.13278 0 0 3.13278 0 6.99725C0 10.8617 3.13278 13.9945 6.99725 13.9945C8.61421 13.9945 10.1031 13.446 11.2879 12.525L14.5067 15.7438C14.8483 16.0854 15.4021 16.0854 15.7437 15.7438C16.0853 15.4022 16.0853 14.8484 15.7437 14.5069L12.5249 11.2881ZM6.99725 12.2452C9.89561 12.2452 12.2452 9.89561 12.2452 6.99725C12.2452 4.0989 9.89561 1.74931 6.99725 1.74931C4.0989 1.74931 1.74931 4.0989 1.74931 6.99725C1.74931 9.89561 4.0989 12.2452 6.99725 12.2452Z" fill="#3E3E3E"/>
<mask id="mask0" mask-type="alpha" maskUnits="userSpaceOnUse" x="0" y="0" width="16" height="16">
<path fill-rule="evenodd" clip-rule="evenodd" d="M12.5249 11.2881C13.446 10.1032 13.9945 8.61427 13.9945 6.99725C13.9945 3.13278 10.8617 0 6.99725 0C3.13278 0 0 3.13278 0 6.99725C0 10.8617 3.13278 13.9945 6.99725 13.9945C8.61421 13.9945 10.1031 13.446 11.2879 12.525L14.5067 15.7438C14.8483 16.0854 15.4021 16.0854 15.7437 15.7438C16.0853 15.4022 16.0853 14.8484 15.7437 14.5069L12.5249 11.2881ZM6.99725 12.2452C9.89561 12.2452 12.2452 9.89561 12.2452 6.99725C12.2452 4.0989 9.89561 1.74931 6.99725 1.74931C4.0989 1.74931 1.74931 4.0989 1.74931 6.99725C1.74931 9.89561 4.0989 12.2452 6.99725 12.2452Z" fill="white"/>
</mask>
<g mask="url(#mask0)">
</g>
</svg>
