<svg width="24" height="25" viewBox="0 0 24 25" xmlns="http://www.w3.org/2000/svg">
<path fill-rule="evenodd" clip-rule="evenodd" d="M0.662522 0.550049C0.296621 0.550049 0 0.84667 0 1.21257C0 1.57847 0.296621 1.87509 0.662521 1.87509H2.88182L5.35304 17.7756H5.35443L5.35437 17.7757H20.2528C20.6187 17.7757 20.9154 17.4791 20.9154 17.1132C20.9154 16.7473 20.6187 16.4506 20.2528 16.4506H6.4857L6.27985 15.1262H21.89C22.3871 15.1262 22.8087 14.761 22.8798 14.269L23.9854 6.60755C23.9894 6.57995 23.9916 6.55254 23.9922 6.52544L23.9922 6.52534C24.0484 6.15478 23.7894 5.8103 23.4178 5.76126L4.43498 3.2558L4.08024 0.973262C4.04238 0.729691 3.83266 0.550049 3.58617 0.550049H3.35322H2.67588H0.662522ZM4.64536 4.60945L6.07392 13.8012H21.6183L22.5913 7.00197L4.64536 4.60945ZM21.4171 21.7507C21.4171 23.2143 20.2185 24.4008 18.7399 24.4008C17.2614 24.4008 16.0628 23.2143 16.0628 21.7507C16.0628 20.2871 17.2614 19.1006 18.7399 19.1006C20.2185 19.1006 21.4171 20.2871 21.4171 21.7507ZM8.03088 24.4015C9.50943 24.4015 10.708 23.215 10.708 21.7514C10.708 20.2878 9.50943 19.1013 8.03088 19.1013C6.55232 19.1013 5.35372 20.2878 5.35372 21.7514C5.35372 23.215 6.55232 24.4015 8.03088 24.4015ZM8.03282 23.0756C8.7721 23.0756 9.3714 22.4824 9.3714 21.7506C9.3714 21.0188 8.7721 20.4255 8.03282 20.4255C7.29354 20.4255 6.69424 21.0188 6.69424 21.7506C6.69424 22.4824 7.29354 23.0756 8.03282 23.0756ZM18.7403 23.0754C19.4795 23.0754 20.0788 22.4822 20.0788 21.7504C20.0788 21.0186 19.4795 20.4253 18.7403 20.4253C18.001 20.4253 17.4017 21.0186 17.4017 21.7504C17.4017 22.4822 18.001 23.0754 18.7403 23.0754Z" />
</svg>
